HIERARCHY
ROOT SpineBase
{
  OFFSET 0.000000 0.000000 0.000000
  CHANNELS 6 Xposition Yposition Zposition Zrotation Xrotation Yrotation
  JOINT SpineMid
  {
    OFFSET 0.000000 28.800945 0.000000
    CHANNELS 3 Zrotation Xrotation Yrotation
    JOINT SpineShoulder
    {
      OFFSET 0.246767 21.224999 -0.837328
      CHANNELS 3 Zrotation Xrotation Yrotation
      JOINT Neck
      {
        OFFSET 0.088213 6.942406 -0.544881
        CHANNELS 3 Zrotation Xrotation Yrotation
        JOINT Head
        {
          OFFSET -3.352711 11.271211 0.112966
          CHANNELS 3 Zrotation Xrotation Yrotation
          End Site
          {
            OFFSET 0 0 0
          }
        }
      }
      JOINT ShoulderLeft
      {
        OFFSET -12.724741 -2.307223 6.849189
        CHANNELS 3 Zrotation Xrotation Yrotation
        JOINT ElbowLeft
        {
          OFFSET 0.143465 -17.046693 7.410549
          CHANNELS 3 Zrotation Xrotation Yrotation
          JOINT WristLeft
          {
            OFFSET -11.454116 -12.008425 -18.446724
            CHANNELS 3 Zrotation Xrotation Yrotation
            JOINT HandLeft
            {
              OFFSET -2.638334 -1.506261 -3.847794
              CHANNELS 3 Zrotation Xrotation Yrotation
              JOINT HandTipLeft
              {
                OFFSET -3.347253 -0.961181 -1.733268
                CHANNELS 3 Zrotation Xrotation Yrotation
                End Site
                {
                  OFFSET 0 0 0
                }
              }
              JOINT ThumbLeft
              {
                OFFSET 3.571191 -0.768335 -5.367352
                CHANNELS 3 Zrotation Xrotation Yrotation
                End Site
                {
                  OFFSET 0 0 0
                }
              }
            }
          }
        }
      }
      JOINT ShoulderRight
      {
        OFFSET 10.365785 -2.169951 -6.193019
        CHANNELS 3 Zrotation Xrotation Yrotation
        JOINT ElbowRight
        {
          OFFSET 8.794407 -18.921769 0.738211
          CHANNELS 3 Zrotation Xrotation Yrotation
          JOINT WristRight
          {
            OFFSET -17.708469 -7.384351 -17.363587
            CHANNELS 3 Zrotation Xrotation Yrotation
            JOINT HandRight
            {
              OFFSET -4.573374 0.024013 -1.445224
              CHANNELS 3 Zrotation Xrotation Yrotation
              JOINT HandTipRight
              {
                OFFSET -3.826885 0.586768 -0.923175
                CHANNELS 3 Zrotation Xrotation Yrotation
                End Site
                {
                  OFFSET 0 0 0
                }
              }
              JOINT ThumbRight
              {
                OFFSET 2.286594 -4.854681 -3.414742
                CHANNELS 3 Zrotation Xrotation Yrotation
                End Site
                {
                  OFFSET 0 0 0
                }
              }
            }
          }
        }
      }
    }
  }
  JOINT HipLeft
  {
    OFFSET -5.384720 0.026707 -1.809021
    CHANNELS 3 Zrotation Xrotation Yrotation
    JOINT KneeLeft
    {
      OFFSET -3.158060 -24.813978 -11.903853
      CHANNELS 3 Zrotation Xrotation Yrotation
      JOINT AnkleLeft
      {
        OFFSET -20.656238 -19.818408 -13.064104
        CHANNELS 3 Zrotation Xrotation Yrotation
        JOINT FootLeft
        {
          OFFSET 1.924082 1.709566 -4.432277
          CHANNELS 3 Zrotation Xrotation Yrotation
          End Site
          {
            OFFSET 0 0 0
          }
        }
      }
    }
  }
  JOINT HipRight
  {
    OFFSET 4.825875 0.616070 -5.000399
    CHANNELS 3 Zrotation Xrotation Yrotation
    JOINT KneeRight
    {
      OFFSET -2.840438 -33.763357 -13.902776
      CHANNELS 3 Zrotation Xrotation Yrotation
      JOINT AnkleRight
      {
        OFFSET 14.781235 -20.821570 30.972757
        CHANNELS 3 Zrotation Xrotation Yrotation
        JOINT FootRight
        {
          OFFSET -4.504876 -4.827682 -10.759830
          CHANNELS 3 Zrotation Xrotation Yrotation
          End Site
          {
            OFFSET 0 0 0
          }
        }
      }
    }
  }
}
MOTION
Frames: 11
Frame Time: 0.033333
28.907445 68.961366 372.387572 -0.000000 0.000000 17.356922 0.000000 0.000000 -17.356922 -0.000000 0.000000 0.000000 -0.000000 0.000000 0.000000 0.000000 0.000000 0.000000 -0.000000 0.000000 0.000000 -0.000000 0.000000 0.000000 -0.000000 0.000000 0.000000 -0.000000 0.000000 0.000000 0.000000 0.000000 0.000000 0.000000 0.000000 0.000000 -0.000000 0.000000 0.000000 -0.000000 0.000000 0.000000 -0.000000 0.000000 0.000000 -0.000000 0.000000 0.000000 0.000000 0.000000 0.000000 0.000000 0.000000 0.000000 0.000000 0.000000 -17.356922 -0.000000 0.000000 0.000000 -0.000000 0.000000 0.000000 0.000000 0.000000 0.000000 0.000000 0.000000 -17.356922 -0.000000 0.000000 0.000000 -0.000000 0.000000 0.000000 0.000000 0.000000 0.000000
28.832567 68.937287 372.186686 -0.231012 0.312339 17.183443 0.128429 -0.366644 -17.182402 -0.000000 0.000000 0.000000 -0.000000 0.000000 0.000000 0.000000 0.000000 0.000000 -1.018295 0.317447 -0.437751 1.020706 -0.309608 0.443330 -5.041030 4.607366 4.247851 9.737387 -7.844956 -3.726391 0.000000 0.000000 0.000000 0.000000 0.000000 0.000000 -0.024204 1.673181 0.777628 -2.009374 -0.157084 0.316621 10.674593 -4.798671 -4.877036 -15.309112 3.686289 7.063985 0.000000 0.000000 0.000000 0.000000 0.000000 0.000000 -6.990442 -0.243638 -13.681635 9.428800 0.210081 -4.136699 -0.720246 0.671198 5.855350 0.000000 0.000000 0.000000 -1.207776 -1.476025 -16.688600 0.390012 -0.023780 -2.368680 0.510435 1.492181 1.841703 0.000000 0.000000 0.000000
28.768542 68.937767 372.005994 -0.415046 0.614131 17.210230 0.214776 -0.709427 -17.206676 -0.000000 0.000000 0.000000 -0.163721 -0.829170 -0.246313 0.000000 0.000000 0.000000 -2.037281 0.734839 -0.869027 1.620087 0.297198 0.571741 -7.515679 5.043295 8.129747 16.626248 -13.228876 -6.029851 0.000000 0.000000 0.000000 0.000000 0.000000 0.000000 -0.183499 3.732702 1.737679 -3.949799 -0.858409 0.792602 17.861590 -8.853439 -8.241825 -24.663361 4.856531 12.213353 0.000000 0.000000 0.000000 0.000000 0.000000 0.000000 -11.725054 -1.001367 -11.434952 16.121099 -0.414870 -6.847852 -1.897853 3.378423 7.367118 0.000000 0.000000 0.000000 -1.975686 -2.860060 -16.441522 0.177450 0.257978 -4.387557 1.127036 2.516646 3.528214 0.000000 0.000000 0.000000
28.715369 68.962808 371.845496 -0.552606 0.906155 17.440211 0.407402 -0.161489 -17.446688 0.054968 0.302618 -0.004408 -0.151857 -2.374664 -0.340676 0.000000 0.000000 0.000000 -2.988148 0.076049 -1.330666 2.372388 0.443819 0.821320 -7.776978 3.287482 10.909076 21.019403 -16.036755 -7.693795 0.000000 0.000000 0.000000 0.000000 0.000000 0.000000 -0.443180 5.035682 2.919475 -5.803025 -2.202399 1.402867 22.681023 -12.171039 -11.071585 -29.822711 5.084994 15.746151 0.000000 0.000000 0.000000 0.000000 0.000000 0.000000 -14.712245 -1.942463 -10.343020 20.558775 -1.369577 -8.251775 -3.278544 7.652950 5.194034 0.000000 0.000000 0.000000 -2.343569 -4.159270 -16.589618 -0.589055 0.877107 -6.039861 1.875478 3.075634 5.063824 0.000000 0.000000 0.000000
28.673048 69.012409 371.705190 -0.643956 1.189148 17.876285 0.534773 -0.156111 -17.880451 0.090984 0.363184 -0.001229 -0.242589 -3.098867 -0.443534 0.000000 0.000000 0.000000 -4.048619 0.302763 -1.781558 3.075838 0.591338 1.043722 -5.929718 -0.411957 12.799645 23.425615 -16.643055 -9.043914 0.000000 0.000000 0.000000 0.000000 0.000000 0.000000 -1.023094 7.584376 4.325700 -7.552745 -4.296825 2.100556 25.741158 -14.843632 -13.934957 -31.926112 5.025726 18.116994 0.000000 0.000000 0.000000 0.000000 0.000000 0.000000 -16.333214 -2.942400 -10.188712 23.119313 -2.356487 -8.493583 -4.371204 13.166305 -0.100854 0.000000 0.000000 0.000000 -2.329902 -5.392913 -17.118362 -1.892362 1.848517 -7.305448 2.778095 3.171570 6.456534 0.000000 0.000000 0.000000
28.641580 69.086570 371.585079 -0.689117 1.463811 18.521301 0.659073 -0.123349 -18.521828 0.135922 0.405022 0.004331 -0.352762 -3.786729 -0.538903 0.000000 0.000000 0.000000 -5.127832 0.624464 -2.227556 3.722502 0.743231 1.236063 -2.476233 -5.375042 14.141806 24.479910 -15.603571 -10.001768 0.000000 0.000000 0.000000 0.000000 0.000000 0.000000 -1.893495 10.630914 6.020495 -9.192901 -7.249254 2.813194 27.334385 -16.884224 -17.163780 -31.596567 4.926701 19.648104 0.000000 0.000000 0.000000 0.000000 0.000000 0.000000 -16.816229 -3.992209 -10.841403 24.035490 -3.203725 -7.667620 -4.593752 19.505254 -7.997002 0.000000 0.000000 0.000000 -1.931981 -6.592214 -18.023150 -3.749688 3.172078 -8.157184 3.853929 2.805350 7.717754 0.000000 0.000000 0.000000
28.612921 69.148801 371.471187 -0.709183 1.760895 19.370815 0.802214 -0.040127 -19.367108 0.186682 0.432638 0.011721 -0.553281 -4.607100 -0.660422 0.000000 0.000000 0.000000 -6.449593 1.030772 -2.776934 4.473459 1.043646 1.451927 2.093488 -10.652890 14.227358 25.466546 -13.694407 -4.639595 0.000000 0.000000 0.000000 0.000000 0.000000 0.000000 -3.233685 14.903246 8.469801 -9.757753 -13.365365 3.664284 22.332227 -14.901967 -25.994364 -24.823816 3.129302 20.611094 0.000000 0.000000 0.000000 0.000000 0.000000 0.000000 -17.010408 -5.102844 -11.889026 25.626316 -5.609051 -5.610056 -0.089064 35.404702 -31.619586 0.000000 0.000000 0.000000 -1.344382 -7.651450 -19.209486 -5.933214 4.364270 -8.944910 5.056776 2.372541 9.082708 0.000000 0.000000 0.000000
28.609038 69.265337 371.403991 -0.674691 2.061621 20.403939 0.916223 0.074253 -20.397363 0.244481 0.455989 0.020608 -0.633104 -5.586176 -0.817634 0.000000 0.000000 0.000000 -7.622537 1.606261 -3.250267 5.025717 1.257025 1.576566 7.442125 -17.009711 16.447948 27.524542 -12.423801 -5.178545 0.000000 0.000000 0.000000 0.000000 0.000000 0.000000 -4.893978 19.325821 11.193294 -11.896601 -18.532404 4.171632 21.591847 -14.448164 -27.439708 -17.779987 3.924898 18.579645 0.000000 0.000000 0.000000 0.000000 0.000000 0.000000 -16.260038 -6.993431 -13.724443 24.771165 -5.370331 -4.001617 -0.593951 36.911327 -36.929279 0.000000 0.000000 0.000000 0.046622 -9.320064 -20.911419 -9.372201 6.777223 -8.644207 6.412887 0.523582 10.890514 0.000000 0.000000 0.000000
28.631309 69.424481 371.363359 -0.527181 2.256344 21.974325 0.950772 0.156353 -21.967094 0.316459 0.396834 0.033963 -0.707317 -5.769503 -0.809993 0.000000 0.000000 0.000000 -8.620618 2.352164 -3.601568 5.380672 1.467460 1.615396 13.700683 -23.563731 20.254981 28.423687 -10.526589 -6.978804 0.000000 0.000000 0.000000 0.000000 0.000000 0.000000 -7.426817 24.091509 14.351944 -13.712865 -24.095016 3.939167 21.413687 -14.564695 -30.641815 -14.982918 4.070886 18.197213 0.000000 0.000000 0.000000 0.000000 0.000000 0.000000 -13.292905 -8.015587 -16.955274 21.480312 -6.490607 0.728667 9.315766 44.233984 -53.511454 0.000000 0.000000 0.000000 2.092286 -11.152603 -23.410642 -13.744947 9.664888 -7.075368 7.902923 -1.883935 11.456149 0.000000 0.000000 0.000000
28.622529 69.665789 371.292222 -0.381746 2.456014 23.447280 1.027261 0.157848 -23.435146 0.397167 0.332582 0.051115 -0.835167 -5.568860 -0.712598 0.000000 0.000000 0.000000 -9.444414 2.881964 -3.856855 5.605489 1.646406 1.624823 25.300754 -32.676451 31.034738 22.143129 -0.673209 -10.397244 0.000000 0.000000 0.000000 0.000000 0.000000 0.000000 -9.883537 27.895421 17.164091 -15.740649 -28.115931 2.982209 21.956559 -15.562468 -33.920249 -9.900195 4.148215 18.467627 0.000000 0.000000 0.000000 0.000000 0.000000 0.000000 -9.055477 -9.491633 -20.625301 16.515644 -6.947602 5.845808 11.315857 44.784705 -56.805490 0.000000 0.000000 0.000000 4.626833 -13.209912 -25.911666 -19.572297 12.218656 -6.151375 10.186817 -4.106884 13.207371 0.000000 0.000000 0.000000
28.638798 69.916199 371.248456 -0.172556 2.566542 24.712095 1.162033 0.201038 -24.693562 0.516896 0.256270 0.076894 -0.809385 -4.990879 -0.512663 0.000000 0.000000 0.000000 -9.764575 -2.274932 -4.207345 1.419104 9.466261 4.018222 30.094251 -37.163359 32.613004 12.163738 10.300461 -3.948611 0.000000 0.000000 0.000000 0.000000 0.000000 0.000000 -13.300346 31.975810 20.624259 -17.454033 -33.016886 1.369414 22.972188 -18.228855 -42.421498 -6.033576 4.692075 22.869256 0.000000 0.000000 0.000000 0.000000 0.000000 0.000000 -3.429598 -12.440590 -24.684136 6.259976 -4.415980 10.911336 13.309928 41.164615 -52.701325 0.000000 0.000000 0.000000 7.299412 -15.184239 -28.173666 -25.220268 14.245232 -4.509374 12.045991 -6.347068 14.239590 0.000000 0.000000 0.000000
